<?xml version="1.0" encoding="iso-8859-1"?>
<!-- Uploaded to: SVG Repo, www.svgrepo.com, Generator: SVG Repo Mixer Tools -->
<svg height="800px" width="800px" version="1.1" id="Layer_1" xmlns="http://www.w3.org/2000/svg" xmlns:xlink="http://www.w3.org/1999/xlink" 
	 viewBox="0 0 512.006 512.006" xml:space="preserve">
<path style="fill:#FF877F;" d="M247.312,204.871c-10.709,0-20.556-4.497-28.467-13.005c-14.523-15.633-21.487-43.272-19.106-75.843
	c2.423-33.16,23.142-68.035,42.598-87.883l17.237-17.587l4.488,24.209c3.567,19.217,11.656,32.529,19.481,45.397
	c7.509,12.339,14.575,23.97,17.007,39.85c3.78,24.84-1.835,48.631-15.411,65.27c-9.446,11.605-30.259,17.954-34.329,19.097
	l-1.707,0.486h-1.792V204.871z"/>
<path style="fill:#FEDEA1;" d="M107.777,499.214l-3.507-2.816c-58.137-46.617-91.467-115.565-91.467-189.181
	c0-8.747,0.512-17.595,1.57-27.025l1.271-11.375h480.7l1.271,11.375c1.058,9.429,1.57,18.278,1.57,27.025
	c0,73.616-33.339,142.564-91.467,189.181l-3.507,2.816H107.777z"/>
<path style="fill:#573A32;" d="M415.731,108.044c-4.54-3.644-10.189-5.632-16.017-5.632h-63.956
	c1.024,3.823,2.091,7.595,2.739,11.827c0.708,4.642,0.538,9.182,0.768,13.773h60.458c39.85,31.948,68.974,76.628,80.801,127.998
	H271.887c-6.938-12.518-10.82-27.127-10.445-40.319c12.663-3.345,24.328-10.957,33.612-22.331
	c15.846-19.439,22.459-46.873,18.125-75.271c-2.799-18.398-10.871-31.684-18.688-44.526c-10.061-16.554-19.558-32.196-19.558-60.748
	c0-4.437-2.304-8.55-6.076-10.888c-3.763-2.364-8.491-2.551-12.45-0.563c-29.951,14.976-66.013,66.789-69.435,113.713
	c-2.637,36.112,5.564,67.276,22.485,85.485c7.432,7.996,16.281,13.167,25.949,15.547c-0.196,13.286,2.816,27.008,8.107,39.91H31.473
	c11.827-51.37,40.951-96.05,80.801-127.998h49.254c-0.009-4.949-0.461-9.694-0.085-14.797c0.265-3.61,1.092-7.193,1.647-10.803
	h-50.807c-5.82,0-11.469,1.988-16.017,5.632C35.083,157.093,0.003,229.685,0.003,307.209s35.088,150.116,96.263,199.165
	c4.54,3.644,10.189,5.632,16.017,5.632h287.449c5.82,0,11.469-1.988,16.017-5.632c61.174-49.049,96.254-121.641,96.254-199.165
	S476.906,157.093,415.731,108.044z M228.206,183.137c-11.921-12.834-17.8-37.572-15.71-66.183
	c2.159-29.585,21.086-61.61,38.971-79.862c4.002,21.546,12.988,36.326,21.154,49.766c7.1,11.673,13.226,21.76,15.266,35.088
	c3.234,21.265-1.374,41.403-12.672,55.252c-7.39,9.071-27.904,14.873-27.904,14.873
	C240.144,192.062,233.718,189.067,228.206,183.137z M486.395,307.209c0,72.694-34.065,137.009-86.672,179.197H112.274
	c-52.616-42.188-86.672-106.503-86.672-179.197c0-8.67,0.555-17.194,1.493-25.6h457.806
	C485.84,290.015,486.395,298.548,486.395,307.209z"/>
</svg>